<svg xmlns="http://www.w3.org/2000/svg" viewBox="0 0 20.974 20.974"><g stroke-miterlimit="10" data-paper-data="{&quot;isPaintingLayer&quot;:true}" style="mix-blend-mode:normal"><path fill="#ffc20e" d="M.637 17.234v-12.5h19.4v12.5z"/><path fill="#5d0023" d="M0 10.487V0h20.974v20.974H0zm9.4781 3.074c1.0697-3.2578 1.572-4.7498 1.5924-4.7292.02603.02603.58687 1.6676 1.9517 5.7124l.19683.58334h2.0282c1.9048 0 2.0296-.00279 2.0525-.04588.01338-.02524.37449-1.3495.80246-2.9429.42798-1.5934.90015-3.3512 1.0493-3.9064.14915-.55516.32001-1.1981.37969-1.4288.05968-.23071.1383-.52962.17471-.66423.03641-.13462.05838-.2526.04881-.26217-.02209-.0221-4.3298-.03814-4.4167-.01645l-.0649.01612.0551.0439c.0303.02415.28755.23829.57166.4759.4628.38704.51517.4389.50303.49812-.03737.1826-.9001 3.9834-1.0362 4.565-.08638.3691-.17413.71123-.19501.76029l-.03796.08919-.06658-.14691c-.05457-.12042-.82815-2.4425-1.9141-5.7456l-.18748-.57023h-3.8569l-.36352 1.1994c-1.3367 4.4104-1.5902 5.237-1.6137 5.2605-.06224.06224-.02837.19422-.78653-3.0647-.17444-.74982-.42277-1.813-.55188-2.3628-.12911-.5498-.2347-1.0069-.2347-1.0159 0-.00906-.97431-.01647-2.1651-.01647-1.2099 0-2.1612.01003-2.1564.02272.00481.01249.24057.21718.52391.45486.52622.44142 1.0448.88868 1.0448.90111 0 .00382.12332.54755.27405 1.2083.15073.66075.51001 2.2396.79838 3.5085.72504 3.1904.71409 3.1438.74668 3.1653.01605.01059.99897.01944 2.1842.01966l2.1551.00042z"/></g></svg>